<?xml version="1.0" encoding="UTF-8" standalone="no"?><!DOCTYPE svg PUBLIC "-//W3C//DTD SVG 1.1//EN" "http://www.w3.org/Graphics/SVG/1.1/DTD/svg11.dtd"><svg width="100%" height="100%" viewBox="0 0 1122 1992" version="1.1" xmlns="http://www.w3.org/2000/svg" xmlns:xlink="http://www.w3.org/1999/xlink" xml:space="preserve" xmlns:serif="http://www.serif.com/" style="fill-rule:evenodd;clip-rule:evenodd;stroke-linejoin:round;stroke-miterlimit:2;"><path d="M1031.79,15.319c-20.425,-20.425 -53.59,-20.425 -74.015,-0l-942.451,942.451c-20.425,20.425 -20.425,53.59 -0,74.015l74.014,74.014c20.425,20.425 53.59,20.425 74.014,0l942.452,-942.452c20.425,-20.424 20.425,-53.589 0,-74.014l-74.014,-74.014Z" style="fill:#3c3c3c;"/><path d="M1105.8,1902.62c20.425,-20.425 20.425,-53.59 0,-74.014l-942.452,-942.452c-20.424,-20.425 -53.589,-20.425 -74.014,-0l-74.014,74.014c-20.425,20.425 -20.425,53.59 -0,74.015l942.451,942.451c20.425,20.425 53.59,20.425 74.015,0l74.014,-74.014Z" style="fill:#3c3c3c;"/></svg>