<?xml version="1.0" encoding="UTF-8" standalone="no"?><!DOCTYPE svg PUBLIC "-//W3C//DTD SVG 1.1//EN" "http://www.w3.org/Graphics/SVG/1.1/DTD/svg11.dtd"><svg width="100%" height="100%" viewBox="0 0 8300 4672" version="1.1" xmlns="http://www.w3.org/2000/svg" xmlns:xlink="http://www.w3.org/1999/xlink" xml:space="preserve" xmlns:serif="http://www.serif.com/" style="fill-rule:evenodd;clip-rule:evenodd;stroke-linejoin:round;stroke-miterlimit:2;"><g><path d="M63.828,372.22c-85.104,85.104 -85.104,223.291 0,308.396l3926.88,3926.88c85.104,85.104 223.292,85.104 308.396,-0l308.392,-308.392c85.104,-85.104 85.104,-223.292 -0,-308.392l-3926.88,-3926.88c-85.1,-85.104 -223.287,-85.104 -308.391,0l-308.392,308.392Z" style="fill:#3c3c3c;"/><path d="M7927.58,63.845c-85.104,-85.104 -223.291,-85.104 -308.391,-0l-3926.88,3926.88c-85.104,85.1 -85.104,223.288 0,308.392l308.392,308.391c85.104,85.105 223.292,85.105 308.396,0l3926.88,-3926.88c85.104,-85.104 85.104,-223.291 -0,-308.396l-308.392,-308.391Z" style="fill:#3c3c3c;"/></g></svg>